<svg viewBox="0 0 100 100" xmlns="http://www.w3.org/2000/svg">
  <!-- Handle -->
  <path d="M 30 35 C 30 5, 70 5, 70 35" fill="none" stroke="#6AA327" stroke-width="10" stroke-linecap="round"/>
  <!-- Bag Body -->
  <rect x="10" y="35" width="80" height="60" rx="8" fill="#6AA327" />
  
  <!-- Leaf -->
  <path d="M 25 75 C 15 50, 40 40, 50 40 C 60 40, 65 50, 60 65 C 50 85, 30 85, 25 75 Z" fill="#ffffff" />
  <path d="M 30 70 L 45 60 M 35 75 L 50 65 M 40 80 L 55 70" stroke="#6AA327" stroke-width="3" stroke-linecap="round" />
  
  <!-- Carrot -->
  <path d="M 45 85 L 65 40 L 75 45 L 55 90 Z" fill="#ffffff" />
  <path d="M 65 40 L 55 20 M 70 42 L 75 25 M 65 40 L 68 22" stroke="#ffffff" stroke-width="4" stroke-linecap="round" />
</svg>
